<mxfile host="app.diagrams.net" modified="2020-12-20T07:56:07.764Z" agent="5.0 (Windows NT 10.0; Win64; x64) AppleWebKit/537.36 (KHTML, like Gecko) Chrome/86.0.4240.111 Safari/537.36" etag="HTK2h8LNcODdkUgQRw5x" version="14.1.1" type="github">
  <diagram id="C5RBs43oDa-KdzZeNtuy" name="Page-1">
    <mxGraphModel dx="1422" dy="762" grid="1" gridSize="10" guides="1" tooltips="1" connect="1" arrows="1" fold="1" page="1" pageScale="1" pageWidth="827" pageHeight="1169" math="0" shadow="0">
      <root>
        <mxCell id="WIyWlLk6GJQsqaUBKTNV-0" />
        <mxCell id="WIyWlLk6GJQsqaUBKTNV-1" parent="WIyWlLk6GJQsqaUBKTNV-0" />
        <mxCell id="fLRvazmBh7Q4R_IIuRyw-0" value="2개의 입력에 대하여 적절한 출력값 출력" style="rounded=1;whiteSpace=wrap;html=1;fontSize=19;glass=0;strokeWidth=1;shadow=0;" vertex="1" parent="WIyWlLk6GJQsqaUBKTNV-1">
          <mxGeometry x="160" y="80" width="500" height="40" as="geometry" />
        </mxCell>
        <mxCell id="fLRvazmBh7Q4R_IIuRyw-8" style="edgeStyle=orthogonalEdgeStyle;rounded=0;orthogonalLoop=1;jettySize=auto;html=1;" edge="1" parent="WIyWlLk6GJQsqaUBKTNV-1" source="fLRvazmBh7Q4R_IIuRyw-1" target="fLRvazmBh7Q4R_IIuRyw-3">
          <mxGeometry relative="1" as="geometry" />
        </mxCell>
        <mxCell id="fLRvazmBh7Q4R_IIuRyw-9" style="edgeStyle=orthogonalEdgeStyle;rounded=0;orthogonalLoop=1;jettySize=auto;html=1;entryX=0;entryY=0.5;entryDx=0;entryDy=0;" edge="1" parent="WIyWlLk6GJQsqaUBKTNV-1" source="fLRvazmBh7Q4R_IIuRyw-1" target="fLRvazmBh7Q4R_IIuRyw-2">
          <mxGeometry relative="1" as="geometry" />
        </mxCell>
        <mxCell id="fLRvazmBh7Q4R_IIuRyw-1" value="&lt;span style=&quot;font-family: , &amp;#34;dotum&amp;#34; , &amp;#34;helvetica&amp;#34; , &amp;#34;apple sd gothic neo&amp;#34; , sans-serif ; font-size: 12px&quot;&gt;int input1 = int.Parse(Console.ReadLine());&lt;/span&gt;&lt;br style=&quot;font-family: , &amp;#34;dotum&amp;#34; , &amp;#34;helvetica&amp;#34; , &amp;#34;apple sd gothic neo&amp;#34; , sans-serif ; font-size: 12px&quot;&gt;&lt;span style=&quot;font-family: , &amp;#34;dotum&amp;#34; , &amp;#34;helvetica&amp;#34; , &amp;#34;apple sd gothic neo&amp;#34; , sans-serif ; font-size: 12px&quot;&gt;&amp;nbsp;&amp;nbsp;&amp;nbsp;&amp;nbsp;&amp;nbsp;&amp;nbsp;&amp;nbsp;&amp;nbsp;&amp;nbsp;&amp;nbsp;&amp;nbsp; int input2 = int.Parse(Console.ReadLine());&lt;/span&gt;" style="rounded=0;whiteSpace=wrap;html=1;fontSize=19;" vertex="1" parent="WIyWlLk6GJQsqaUBKTNV-1">
          <mxGeometry x="230" y="170" width="330" height="60" as="geometry" />
        </mxCell>
        <mxCell id="fLRvazmBh7Q4R_IIuRyw-2" value="2개의 변수값설정" style="rounded=1;whiteSpace=wrap;html=1;fontSize=12;glass=0;strokeWidth=1;shadow=0;" vertex="1" parent="WIyWlLk6GJQsqaUBKTNV-1">
          <mxGeometry x="670" y="165" width="120" height="70" as="geometry" />
        </mxCell>
        <mxCell id="fLRvazmBh7Q4R_IIuRyw-10" style="edgeStyle=orthogonalEdgeStyle;rounded=0;orthogonalLoop=1;jettySize=auto;html=1;entryX=0;entryY=0.5;entryDx=0;entryDy=0;" edge="1" parent="WIyWlLk6GJQsqaUBKTNV-1" source="fLRvazmBh7Q4R_IIuRyw-3" target="fLRvazmBh7Q4R_IIuRyw-4">
          <mxGeometry relative="1" as="geometry" />
        </mxCell>
        <mxCell id="fLRvazmBh7Q4R_IIuRyw-11" style="edgeStyle=orthogonalEdgeStyle;rounded=0;orthogonalLoop=1;jettySize=auto;html=1;" edge="1" parent="WIyWlLk6GJQsqaUBKTNV-1" source="fLRvazmBh7Q4R_IIuRyw-3" target="fLRvazmBh7Q4R_IIuRyw-5">
          <mxGeometry relative="1" as="geometry" />
        </mxCell>
        <mxCell id="fLRvazmBh7Q4R_IIuRyw-3" value="&lt;span style=&quot;font-family: , &amp;#34;dotum&amp;#34; , &amp;#34;helvetica&amp;#34; , &amp;#34;apple sd gothic neo&amp;#34; , sans-serif ; font-size: 12px&quot;&gt;if(input1&amp;gt;0 &amp;amp;&amp;amp; input2&amp;gt;0)&lt;/span&gt;&lt;br style=&quot;font-family: , &amp;#34;dotum&amp;#34; , &amp;#34;helvetica&amp;#34; , &amp;#34;apple sd gothic neo&amp;#34; , sans-serif ; font-size: 12px&quot;&gt;&lt;span style=&quot;font-family: , &amp;#34;dotum&amp;#34; , &amp;#34;helvetica&amp;#34; , &amp;#34;apple sd gothic neo&amp;#34; , sans-serif ; font-size: 12px&quot;&gt;&amp;nbsp;&amp;nbsp;&amp;nbsp;&amp;nbsp;&amp;nbsp;&amp;nbsp;&amp;nbsp;&amp;nbsp;&amp;nbsp;&amp;nbsp;&amp;nbsp;&amp;nbsp;&amp;nbsp;&amp;nbsp;&amp;nbsp; Console.WriteLine(&quot;1&quot;);&lt;/span&gt;&lt;br style=&quot;font-family: , &amp;#34;dotum&amp;#34; , &amp;#34;helvetica&amp;#34; , &amp;#34;apple sd gothic neo&amp;#34; , sans-serif ; font-size: 12px&quot;&gt;&lt;span style=&quot;font-family: , &amp;#34;dotum&amp;#34; , &amp;#34;helvetica&amp;#34; , &amp;#34;apple sd gothic neo&amp;#34; , sans-serif ; font-size: 12px&quot;&gt;&amp;nbsp;&amp;nbsp;&amp;nbsp;&amp;nbsp;&amp;nbsp;&amp;nbsp;&amp;nbsp;&amp;nbsp;&amp;nbsp;&amp;nbsp; else if (input1 &amp;lt; 0 &amp;amp;&amp;amp; input2 &amp;gt;0)&lt;/span&gt;&lt;br style=&quot;font-family: , &amp;#34;dotum&amp;#34; , &amp;#34;helvetica&amp;#34; , &amp;#34;apple sd gothic neo&amp;#34; , sans-serif ; font-size: 12px&quot;&gt;&lt;span style=&quot;font-family: , &amp;#34;dotum&amp;#34; , &amp;#34;helvetica&amp;#34; , &amp;#34;apple sd gothic neo&amp;#34; , sans-serif ; font-size: 12px&quot;&gt;&amp;nbsp;&amp;nbsp;&amp;nbsp;&amp;nbsp;&amp;nbsp;&amp;nbsp;&amp;nbsp;&amp;nbsp;&amp;nbsp;&amp;nbsp;&amp;nbsp;&amp;nbsp;&amp;nbsp;&amp;nbsp;&amp;nbsp; Console.WriteLine(&quot;2&quot;);&lt;/span&gt;&lt;br style=&quot;font-family: , &amp;#34;dotum&amp;#34; , &amp;#34;helvetica&amp;#34; , &amp;#34;apple sd gothic neo&amp;#34; , sans-serif ; font-size: 12px&quot;&gt;&lt;span style=&quot;font-family: , &amp;#34;dotum&amp;#34; , &amp;#34;helvetica&amp;#34; , &amp;#34;apple sd gothic neo&amp;#34; , sans-serif ; font-size: 12px&quot;&gt;&amp;nbsp;&amp;nbsp;&amp;nbsp;&amp;nbsp;&amp;nbsp;&amp;nbsp;&amp;nbsp;&amp;nbsp;&amp;nbsp;&amp;nbsp;&amp;nbsp; else if (input1 &amp;lt;0 &amp;amp;&amp;amp; input2 &amp;lt; 0)&lt;/span&gt;&lt;br style=&quot;font-family: , &amp;#34;dotum&amp;#34; , &amp;#34;helvetica&amp;#34; , &amp;#34;apple sd gothic neo&amp;#34; , sans-serif ; font-size: 12px&quot;&gt;&lt;span style=&quot;font-family: , &amp;#34;dotum&amp;#34; , &amp;#34;helvetica&amp;#34; , &amp;#34;apple sd gothic neo&amp;#34; , sans-serif ; font-size: 12px&quot;&gt;&amp;nbsp;&amp;nbsp;&amp;nbsp;&amp;nbsp;&amp;nbsp;&amp;nbsp;&amp;nbsp;&amp;nbsp;&amp;nbsp;&amp;nbsp;&amp;nbsp;&amp;nbsp;&amp;nbsp;&amp;nbsp;&amp;nbsp; Console.WriteLine(&quot;3&quot;);&lt;/span&gt;&lt;br style=&quot;font-family: , &amp;#34;dotum&amp;#34; , &amp;#34;helvetica&amp;#34; , &amp;#34;apple sd gothic neo&amp;#34; , sans-serif ; font-size: 12px&quot;&gt;&lt;span style=&quot;font-family: , &amp;#34;dotum&amp;#34; , &amp;#34;helvetica&amp;#34; , &amp;#34;apple sd gothic neo&amp;#34; , sans-serif ; font-size: 12px&quot;&gt;&amp;nbsp;&amp;nbsp;&amp;nbsp;&amp;nbsp;&amp;nbsp;&amp;nbsp;&amp;nbsp;&amp;nbsp;&amp;nbsp;&amp;nbsp;&amp;nbsp; else if (input1 &amp;gt; 0 &amp;amp;&amp;amp; input2 &amp;lt; 0)&lt;/span&gt;&lt;br style=&quot;font-family: , &amp;#34;dotum&amp;#34; , &amp;#34;helvetica&amp;#34; , &amp;#34;apple sd gothic neo&amp;#34; , sans-serif ; font-size: 12px&quot;&gt;&lt;span style=&quot;font-family: , &amp;#34;dotum&amp;#34; , &amp;#34;helvetica&amp;#34; , &amp;#34;apple sd gothic neo&amp;#34; , sans-serif ; font-size: 12px&quot;&gt;&amp;nbsp;&amp;nbsp;&amp;nbsp;&amp;nbsp;&amp;nbsp;&amp;nbsp;&amp;nbsp;&amp;nbsp;&amp;nbsp;&amp;nbsp;&amp;nbsp;&amp;nbsp;&amp;nbsp;&amp;nbsp;&amp;nbsp; Console.WriteLine(&quot;4&quot;);&lt;/span&gt;&lt;br style=&quot;font-family: , &amp;#34;dotum&amp;#34; , &amp;#34;helvetica&amp;#34; , &amp;#34;apple sd gothic neo&amp;#34; , sans-serif ; font-size: 12px&quot;&gt;&lt;span style=&quot;font-family: , &amp;#34;dotum&amp;#34; , &amp;#34;helvetica&amp;#34; , &amp;#34;apple sd gothic neo&amp;#34; , sans-serif ; font-size: 12px&quot;&gt;&amp;nbsp;&amp;nbsp;&amp;nbsp;&amp;nbsp;&amp;nbsp;&amp;nbsp;&amp;nbsp;&amp;nbsp;&amp;nbsp;&amp;nbsp;&amp;nbsp; else// 둘다 0인경우&lt;/span&gt;&lt;br style=&quot;font-family: , &amp;#34;dotum&amp;#34; , &amp;#34;helvetica&amp;#34; , &amp;#34;apple sd gothic neo&amp;#34; , sans-serif ; font-size: 12px&quot;&gt;&lt;span style=&quot;font-family: , &amp;#34;dotum&amp;#34; , &amp;#34;helvetica&amp;#34; , &amp;#34;apple sd gothic neo&amp;#34; , sans-serif ; font-size: 12px&quot;&gt;&amp;nbsp;&amp;nbsp;&amp;nbsp;&amp;nbsp;&amp;nbsp;&amp;nbsp;&amp;nbsp;&amp;nbsp;&amp;nbsp;&amp;nbsp;&amp;nbsp;&amp;nbsp;&amp;nbsp;&amp;nbsp;&amp;nbsp; Console.WriteLine(&quot;0&quot;);&amp;nbsp;&lt;/span&gt;" style="whiteSpace=wrap;html=1;aspect=fixed;fontSize=19;" vertex="1" parent="WIyWlLk6GJQsqaUBKTNV-1">
          <mxGeometry x="230" y="290" width="330" height="330" as="geometry" />
        </mxCell>
        <mxCell id="fLRvazmBh7Q4R_IIuRyw-4" value="if문을 이용&lt;br&gt;" style="rounded=1;whiteSpace=wrap;html=1;fontSize=12;glass=0;strokeWidth=1;shadow=0;" vertex="1" parent="WIyWlLk6GJQsqaUBKTNV-1">
          <mxGeometry x="660" y="420" width="120" height="70" as="geometry" />
        </mxCell>
        <mxCell id="fLRvazmBh7Q4R_IIuRyw-5" value="예시: (1,&amp;nbsp; -1) 입력&lt;br&gt;출력:4&lt;br&gt;(-2, 2)입력&lt;br&gt;출력:2" style="rounded=0;whiteSpace=wrap;html=1;fontSize=15;align=left;" vertex="1" parent="WIyWlLk6GJQsqaUBKTNV-1">
          <mxGeometry x="290" y="670" width="210" height="70" as="geometry" />
        </mxCell>
      </root>
    </mxGraphModel>
  </diagram>
</mxfile>
